Coordinates
version=1
nRows=26
nColumns=22
inDegrees=yes

Units are S.I. units (second, meters, Newtons, ...)
If the header above contains a line with 'inDegrees', this indicates whether rotational values are in degrees (yes) or radians (no).

endheader
time	pelvis_tilt	pelvis_list	pelvis_rotation	pelvis_tx	pelvis_ty	pelvis_tz	hip_flexion_r	hip_adduction_r	hip_rotation_r	knee_angle_r	ankle_angle_r	subtalar_angle_r	hip_flexion_l	hip_adduction_l	hip_rotation_l	knee_angle_l	ankle_angle_l	subtalar_angle_l	lumbar_extension	lumbar_bending	lumbar_rotation
      3.98000000	     -1.28375986	     -2.50966159	      3.15554576	      0.59383180	      0.95419874	     -0.33351955	     13.13613248	     -0.96223731	     -1.77185637	    -63.23223774	     -2.73810322	      8.51180177	     16.72946604	      1.52941428	      7.74708779	    -24.40856899	     10.23711216	     -2.78991001	     -0.86530790	     -0.13205141	     -5.05581191
      3.99000000	     -1.08470250	     -2.45981451	      3.45308157	      0.60231273	      0.95540334	     -0.33532367	     13.91454463	     -1.32751028	     -2.23172369	    -63.44807698	     -2.14360369	      7.83093512	     15.65972212	      1.64089034	      7.91058802	    -23.87241452	     10.54074013	     -2.76390747	     -1.03288405	     -0.13340515	     -5.34957582
      4.00000000	     -0.89160899	     -2.43957914	      3.76670075	      0.61072037	      0.95655252	     -0.33704580	     14.64878952	     -1.62834577	     -2.67926900	    -63.45150588	     -1.45974642	      7.12665349	     14.60437522	      1.70103848	      8.04965158	    -23.33155429	     10.84231104	     -2.72852036	     -1.19722310	     -0.10716083	     -5.65719375
      4.01000000	     -0.72456334	     -2.42499443	      4.11787289	      0.61905227	      0.95762732	     -0.33876432	     15.36351511	     -1.91815631	     -3.14652475	    -63.25942419	     -0.73399772	      6.63513239	     13.55835649	      1.75708356	      8.27598307	    -22.74660682	     11.10351283	     -2.67559300	     -1.33426191	     -0.07732216	     -5.97933603
      4.02000000	     -0.55472914	     -2.42629186	      4.48224395	      0.62732132	      0.95863763	     -0.34038387	     16.02652522	     -2.16446271	     -3.61049104	    -62.87874934	      0.06010482	      6.12141845	     12.51432974	      1.77582959	      8.49783897	    -22.15506406	     11.36303122	     -2.61687037	     -1.47588005	     -0.04013540	     -6.29591764
      4.03000000	     -0.38873143	     -2.43643333	      4.85593302	      0.63550006	      0.95955638	     -0.34193497	     16.65483186	     -2.38382340	     -4.07483421	    -62.33322039	      0.90554349	      5.62899905	     11.49035173	      1.77110646	      8.71617660	    -21.57486921	     11.61064404	     -2.55416498	     -1.61997880	      0.00499597	     -6.62892072
      4.04000000	     -0.25657500	     -2.44906906	      5.26457248	      0.64357183	      0.96034226	     -0.34345576	     17.28495325	     -2.60047244	     -4.56015092	    -61.64191595	      1.76102341	      5.35713080	     10.51581309	      1.76488679	      9.00998711	    -21.00210451	     11.84211250	     -2.49438821	     -1.73277792	      0.04627122	     -6.99786367
      4.05000000	     -0.10511047	     -2.47325764	      5.66440814	      0.65159819	      0.96106972	     -0.34488246	     17.85255508	     -2.78394895	     -5.03569067	    -60.79734910	      2.60554453	      5.08136733	      9.53464986	      1.72775065	      9.29524837	    -20.44446918	     12.07447969	     -2.43200768	     -1.86856125	      0.09988141	     -7.33110535
      4.06000000	      0.03231057	     -2.50936195	      6.05361362	      0.65953310	      0.96167410	     -0.34620396	     18.41306446	     -2.94267262	     -5.50331350	    -59.83909879	      3.41979754	      4.87517745	      8.59582389	      1.66522337	      9.57770199	    -19.92005047	     12.30867450	     -2.37443970	     -1.99661550	      0.16218864	     -7.63559990
      4.07000000	      0.20086183	     -2.55462458	      6.42512317	      0.66744541	      0.96225641	     -0.34738233	     18.90583272	     -3.05745653	     -5.93732143	    -58.75392051	      4.12499938	      4.70416594	      7.62104858	      1.56928706	      9.86197840	    -19.38384169	     12.54652850	     -2.30953264	     -2.15927708	      0.22848987	     -7.91232939
      4.08000000	      0.32269434	     -2.60189136	      6.80271251	      0.67524033	      0.96265491	     -0.34848855	     19.43691480	     -3.17099941	     -6.36654709	    -57.60099215	      4.78879611	      4.66961914	      6.75315143	      1.47062327	     10.13400839	    -18.93006857	     12.79149961	     -2.26263235	     -2.27952166	      0.29260124	     -8.21676737
      4.09000000	      0.45391483	     -2.66093467	      7.16526120	      0.68300863	      0.96297990	     -0.34947375	     19.93594400	     -3.25780162	     -6.77909630	    -56.37234096	      5.37189660	      4.70766182	      5.89421800	      1.34420086	     10.39636843	    -18.50178161	     13.04552171	     -2.22002786	     -2.40983509	      0.36359084	     -8.48343910
      4.10000000	      0.56736736	     -2.72577810	      7.50983271	      0.69070584	      0.96318421	     -0.35033968	     20.44340112	     -3.32725849	     -7.16416477	    -55.09485805	      5.88474900	      4.79601615	      5.09478485	      1.20425431	     10.64113744	    -18.13317478	     13.30789764	     -2.18837608	     -2.52766812	      0.43513826	     -8.70806094
      4.11000000	      0.69438915	     -2.79433748	      7.81399295	      0.69839576	      0.96332593	     -0.35105928	     20.92761578	     -3.36371413	     -7.48799402	    -53.77916429	      6.29263586	      4.96982874	      4.29360173	      1.04675513	     10.86736730	    -17.78818043	     13.59106181	     -2.16074869	     -2.65943903	      0.50848352	     -8.91754483
      4.12000000	      0.78545317	     -2.87050224	      8.12128812	      0.70601855	      0.96330851	     -0.35171115	     21.44603479	     -3.40855558	     -7.83382782	    -52.45347328	      6.65126980	      5.14855469	      3.58694017	      0.88575932	     11.08687694	    -17.53109237	     13.87783355	     -2.14311371	     -2.75477765	      0.58328456	     -9.09898261
      4.13000000	      0.86991625	     -2.94588302	      8.40070538	      0.71361065	      0.96319978	     -0.35224547	     21.96715303	     -3.43693708	     -8.13395179	    -51.11653791	      6.90861122	      5.37149566	      2.90867786	      0.72037271	     11.29165067	    -17.30948501	     14.18099861	     -2.12546920	     -2.84640603	      0.65318398	     -9.24566245
      4.14000000	      0.94259975	     -3.01484277	      8.65923406	      0.72116814	      0.96299531	     -0.35268947	     22.49364335	     -3.46490820	     -8.40660891	    -49.77192915	      7.05695779	      5.61993208	      2.26831431	      0.55959864	     11.47990143	    -17.13166057	     14.49224377	     -2.10494151	     -2.92877489	      0.71337186	     -9.36112751
      4.15000000	      1.00292997	     -3.07467737	      8.89857862	      0.72869635	      0.96269549	     -0.35305102	     23.02286630	     -3.49349717	     -8.65051996	    -48.42165114	      7.09081221	      5.86766468	      1.66096647	      0.40710390	     11.65039867	    -16.98891586	     14.81064271	     -2.08074587	     -3.00168030	      0.76078779	     -9.44611291
      4.16000000	      1.04632353	     -3.12758846	      9.12771462	      0.73618779	      0.96229714	     -0.35335776	     23.55080485	     -3.52089388	     -8.87055968	    -47.05384380	      7.00475720	      6.06804088	      1.09048625	      0.26286905	     11.81087578	    -16.87741387	     15.13065122	     -2.05962709	     -3.05956699	      0.80076287	     -9.50537253
      4.17000000	      1.07945066	     -3.17669057	      9.34613735	      0.74365007	      0.96180886	     -0.35359450	     24.06304264	     -3.53676590	     -9.06235276	    -45.66032768	      6.79374141	      6.21395210	      0.54752123	      0.12162890	     11.97010670	    -16.79347558	     15.45040292	     -2.04743501	     -3.11023177	      0.83514064	     -9.54494555
      4.18000000	      1.11012544	     -3.22584009	      9.56188791	      0.75108579	      0.96124454	     -0.35378852	     24.54051162	     -3.53370206	     -9.22095577	    -44.22430054	      6.45921948	      6.31663900	      0.01988918	     -0.02183644	     12.13145630	    -16.72914622	     15.77174871	     -2.04806287	     -3.16074402	      0.87351807	     -9.57163372
      4.19000000	      1.14009439	     -3.27669465	      9.77430424	      0.75849493	      0.96061254	     -0.35393038	     24.97847339	     -3.50617119	     -9.33729037	    -42.74214852	      6.00176786	      6.38867847	     -0.49684382	     -0.17078300	     12.29932862	    -16.67955515	     16.08776239	     -2.06499056	     -3.21338584	      0.91648555	     -9.58379383
      4.20000000	      1.16385744	     -3.32686426	      9.98325049	      0.76587402	      0.95991765	     -0.35401373	     25.38216103	     -3.45605987	     -9.39989621	    -41.21427100	      5.43290343	      6.45350823	     -1.00212438	     -0.32400023	     12.46643423	    -16.63385429	     16.39079747	     -2.09650359	     -3.26296768	      0.95806622	     -9.58433058
      4.21000000	      1.19257275	     -3.37404735	     10.18940521	      0.77323344	      0.95917963	     -0.35404709	     25.73907785	     -3.38643914	     -9.40353803	    -39.64625639	      4.78997884	      6.52785394	     -1.51562336	     -0.48299544	     12.63270206	    -16.58026492	     16.69343457	     -2.13712219	     -3.32226175	      1.00070411	     -9.57250645
      4.22000000	      1.21954110	     -3.41332216	     10.39354730	      0.78058128	      0.95840589	     -0.35404136	     26.05401732	     -3.30455624	     -9.34016041	    -38.03966519	      4.11205265	      6.62810544	     -2.03579540	     -0.64177726	     12.79130016	    -16.51027181	     16.98615657	     -2.17542038	     -3.38232068	      1.03840894	     -9.55204325
      4.23000000	      1.25217961	     -3.44362020	     10.59589781	      0.78793296	      0.95761443	     -0.35397925	     26.31693987	     -3.21261716	     -9.21196218	    -36.39960559	      3.45695432	      6.76091158	     -2.57714928	     -0.80474591	     12.94381869	    -16.41374221	     17.27305294	     -2.20112345	     -3.45311266	      1.06827032	     -9.52417240
